P2
# This is an example bitmap of the letter "J"
6 10
255
0 0 0 128 255 0
0 0 0 0 255 0
0 0 0 0 255 0
0 0 0 0 255 0
0 0 0 0 255 0
0 0 0 0 255 0
255 0 0 0 255 0
128 255 255 255 128 0
0 0 0 0 0 0
0 0 0 0 0 0
